<svg xmlns="http://www.w3.org/2000/svg"  viewBox="0 0 100 100" width="500px" height="500px"><circle cx="78" cy="14" r="1" fill="#f1bc19"/><circle cx="50" cy="50" r="38" fill="#f9dbd2"/><circle cx="84" cy="16" r="4" fill="#f1bc19"/><circle cx="14" cy="26" r="2" fill="#ee3e54"/><circle cx="78" cy="77" r="2" fill="#fbcd59"/><circle cx="17" cy="78" r="4" fill="#fbcd59"/><circle cx="24" cy="83" r="2" fill="#ee3e54"/><circle cx="36.483" cy="78.517" r="2.483" fill="#fff"/><circle cx="16" cy="48" r="1" fill="#fff"/><circle cx="86" cy="31" r="1" fill="#f1bc19"/><circle cx="80" cy="66" r="2" fill="#fff"/><g><path fill="#836f61" d="M70.036,72h-0.42v-0.62l-2.52-3.88l-4.23-6.5l4.3-21.49l2.32-11.63l0.67-0.41l7,11.19 c0.13,0.22,0.18,0.48,0.13,0.73l-6.27,31.8C70.926,71.66,70.516,72,70.036,72z"/><path fill="#bd977c" d="M67.096,67.5l2.52,3.88V72h-12.24c-0.32,0-0.63-0.16-0.81-0.42l-4.52-6.33l0.69-0.5L50.366,61h12.5 L67.096,67.5z"/><polygon fill="#836f61" points="53.866,46.5 51.006,58.25 50.986,58.25 47.736,53.62 47.736,53.5 49.616,46.5"/><polygon fill="#bd977c" points="50.366,61 52.736,64.75 52.046,65.25 51.866,65 47.986,65 47.986,64.38 42.376,56.5 42.366,56.5 40.236,53.5 47.736,53.5 47.736,53.62 50.986,58.25 51.006,58.25 50.366,60.88"/><path fill="#836f61" d="M47.986,64.38V65h-0.12l-2.75,6.39c-0.09,0.23-0.27,0.41-0.49,0.51l-0.26-0.4l-10-10.5l1.02-3.49 l1.17-3.99l2.06-7.02h3.75l-2.13,7l2.13,3h0.01L47.986,64.38z"/><path fill="#bd977c" d="M34.366,61l10,10.5l0.26,0.4c-0.13,0.07-0.27,0.1-0.42,0.1h-11.93c-0.27,0-0.52-0.11-0.71-0.29 l-10.2-10.21l0.5-0.5H34.366z"/><path fill="#c0d078" d="M21.866,61l-0.5,0.5l-0.07-0.07c-0.27-0.26-0.36-0.65-0.25-1.01l3.59-11.09l0.6,0.2h5.13l-1.25,3.97 l-1.25,4h7.5l0.02,0.01L34.366,61H21.866z"/><polygon fill="#c0d078" points="36.556,53.52 35.386,57.51 35.366,57.5 27.866,57.5 29.116,53.5 36.486,53.5"/><path fill="#c0d078" d="M44.116,27v0.62l-2,6.88h-11.63l-0.95-0.31l2.1-6.5c0.13-0.41,0.52-0.69,0.95-0.69 C32.586,27,44.116,27,44.116,27z"/><path fill="#836f61" d="M44.366,27c0.31,0,0.61,0.15,0.8,0.4l5.7,7.6l0.75,0.5l-1.08,3.98l-0.55,2.02h-6.62l2-7h-3.25 l2-6.88V27H44.366z"/><path fill="#c0d078" d="M61.986,33.5l-1.25,6h-10.12l-0.08-0.02l1.08-3.98l-0.75-0.5l0.72-1.45 c0.17-0.34,0.51-0.55,0.89-0.55h3.13l0.63,0.5H61.986z"/><path fill="#c0d078" d="M69.306,27c0.35,0,0.67,0.18,0.85,0.47l-0.67,0.41l-2.32,11.63l-0.05-0.01h-6.38l1.25-6h-5.75 l-0.63-0.5l1.09-5.21c0.1-0.46,0.5-0.79,0.98-0.79H69.306z"/><polygon fill="#c0d078" points="67.166,39.51 62.866,61 50.366,61 50.366,60.88 51.006,58.25 53.866,46.5 49.616,46.5 47.736,53.5 40.236,53.5 42.366,46.5 38.616,46.5 36.556,53.52 36.486,53.5 29.116,53.5 30.366,49.53 25.236,49.53 24.636,49.33 29.536,34.19 30.486,34.5 42.116,34.5 45.366,34.5 43.366,41.5 49.986,41.5 50.536,39.48 50.616,39.5 60.736,39.5 67.116,39.5"/><path fill="#472b29" d="M58.079,28.082h0.005H58.079 M32.983,28.123h0.005H32.983 M69.099,28.4l6.795,10.873L69.724,70.6 H57.595l-4.581-6.414c-0.263-0.368-0.687-0.586-1.139-0.586h-4c-0.56,0-1.066,0.334-1.287,0.849L43.952,70.6H32.455l-9.984-9.984 L32.894,28.4h11.281l5.58,7.44c0.266,0.354,0.682,0.56,1.12,0.56c0.042,0,0.084-0.002,0.126-0.006 c0.483-0.044,0.909-0.334,1.126-0.768L52.74,34.4h2.877c0.663,0,1.234-0.464,1.37-1.113l1.024-4.887L69.099,28.4 M52.851,34.179 h0.005H52.851 M69.321,27H57.687c-0.473,0-0.882,0.332-0.979,0.795L55.618,33h-3.125c-0.379,0-0.725,0.214-0.894,0.553L50.875,35 l-5.7-7.6c-0.189-0.252-0.485-0.4-0.8-0.4H32.603c-0.434,0-0.818,0.28-0.951,0.692L21.063,60.418 c-0.116,0.357-0.021,0.749,0.244,1.015l10.274,10.274C31.77,71.895,32.024,72,32.289,72h11.926c0.4,0,0.762-0.238,0.919-0.606 L47.875,65h4l4.701,6.581C56.764,71.844,57.067,72,57.39,72h12.663c0.478,0,0.889-0.338,0.981-0.807l6.265-31.805 c0.049-0.249,0.001-0.508-0.133-0.723L70.169,27.47C69.986,27.178,69.666,27,69.321,27L69.321,27z"/><path fill="#472b29" d="M44.375,72c-0.132,0-0.264-0.052-0.362-0.155l-10-10.5c-0.19-0.2-0.183-0.516,0.018-0.707 c0.2-0.189,0.516-0.184,0.707,0.018l10,10.5c0.19,0.2,0.183,0.516-0.018,0.707C44.623,71.954,44.499,72,44.375,72z"/><path fill="#472b29" d="M27.5,61.5h-5.625c-0.276,0-0.5-0.224-0.5-0.5s0.224-0.5,0.5-0.5H27.5c0.276,0,0.5,0.224,0.5,0.5 S27.776,61.5,27.5,61.5z"/><path fill="#472b29" d="M34.5,61.5h-3c-0.276,0-0.5-0.224-0.5-0.5s0.224-0.5,0.5-0.5h3c0.276,0,0.5,0.224,0.5,0.5 S34.776,61.5,34.5,61.5z"/><path fill="#472b29" d="M36.5,54h-4c-0.276,0-0.5-0.224-0.5-0.5s0.224-0.5,0.5-0.5h4c0.276,0,0.5,0.224,0.5,0.5 S36.776,54,36.5,54z"/><path fill="#472b29" d="M50,42h-6.625c-0.157,0-0.305-0.074-0.399-0.199c-0.094-0.125-0.125-0.288-0.082-0.438L44.712,35 H37.5c-0.276,0-0.5-0.224-0.5-0.5s0.224-0.5,0.5-0.5h7.875c0.157,0,0.305,0.074,0.399,0.199c0.094,0.125,0.125,0.288,0.082,0.438 L44.038,41h5.579l1.525-5.631c0.072-0.267,0.345-0.426,0.613-0.352c0.267,0.072,0.424,0.347,0.352,0.613l-1.625,6 C50.423,41.849,50.226,42,50,42z"/><path fill="#472b29" d="M62,34h-5.75c-0.276,0-0.5-0.224-0.5-0.5s0.224-0.5,0.5-0.5H62c0.276,0,0.5,0.224,0.5,0.5 S62.276,34,62,34z"/><path fill="#472b29" d="M55.5,40h-4.875c-0.276,0-0.5-0.224-0.5-0.5s0.224-0.5,0.5-0.5H55.5c0.276,0,0.5,0.224,0.5,0.5 S55.776,40,55.5,40z"/><path fill="#472b29" d="M67,40h-8.5c-0.276,0-0.5-0.224-0.5-0.5s0.224-0.5,0.5-0.5H67c0.276,0,0.5,0.224,0.5,0.5 S67.276,40,67,40z"/><path fill="#472b29" d="M48,64.875c-0.156,0-0.31-0.073-0.408-0.21l-7.75-10.875c-0.108-0.152-0.123-0.353-0.037-0.519 C39.891,53.104,40.063,53,40.25,53h7.5c0.276,0,0.5,0.224,0.5,0.5s-0.224,0.5-0.5,0.5h-6.53l7.187,10.085 c0.16,0.225,0.108,0.537-0.117,0.697C48.202,64.845,48.101,64.875,48,64.875z"/><path fill="#472b29" d="M51,58.75c-0.157,0-0.312-0.074-0.41-0.212l-3.25-4.625c-0.159-0.226-0.104-0.538,0.122-0.697 s0.538-0.104,0.697,0.122l3.25,4.625c0.159,0.226,0.104,0.538-0.122,0.697C51.2,58.721,51.1,58.75,51,58.75z"/><path fill="#472b29" d="M32.5,58h-4.625c-0.159,0-0.309-0.076-0.403-0.204s-0.122-0.294-0.074-0.446l2.296-7.318H25.25 c-0.276,0-0.5-0.224-0.5-0.5s0.224-0.5,0.5-0.5h5.125c0.159,0,0.309,0.076,0.403,0.204s0.122,0.294,0.074,0.446L28.556,57H32.5 c0.276,0,0.5,0.224,0.5,0.5S32.776,58,32.5,58z"/><path fill="#472b29" d="M42.125,35c-0.046,0-0.093-0.006-0.14-0.02c-0.265-0.077-0.417-0.354-0.34-0.62l2-6.875 c0.077-0.266,0.353-0.418,0.62-0.34c0.265,0.077,0.417,0.354,0.34,0.62l-2,6.875C42.542,34.858,42.342,35,42.125,35z"/><path fill="#472b29" d="M34.375,61.5c-0.046,0-0.094-0.006-0.141-0.02c-0.265-0.078-0.417-0.355-0.339-0.621l4.25-14.5 c0.078-0.265,0.356-0.415,0.621-0.339c0.265,0.078,0.417,0.355,0.339,0.621l-4.25,14.5C34.791,61.359,34.591,61.5,34.375,61.5z"/><path fill="#472b29" d="M52.75,65.25c-0.166,0-0.328-0.082-0.423-0.232l-2.375-3.75c-0.098-0.154-0.104-0.349-0.016-0.509 s0.256-0.259,0.438-0.259H53.5c0.276,0,0.5,0.224,0.5,0.5s-0.224,0.5-0.5,0.5h-2.216l1.889,2.982 c0.148,0.233,0.079,0.542-0.155,0.69C52.935,65.225,52.842,65.25,52.75,65.25z"/><path fill="#472b29" d="M57.5,61.5h-2c-0.276,0-0.5-0.224-0.5-0.5s0.224-0.5,0.5-0.5h2c0.276,0,0.5,0.224,0.5,0.5 S57.776,61.5,57.5,61.5z"/><path fill="#472b29" d="M62.875,61.5H60.5c-0.276,0-0.5-0.224-0.5-0.5s0.224-0.5,0.5-0.5h1.965l6.544-32.723 c0.054-0.271,0.312-0.448,0.588-0.392c0.271,0.054,0.446,0.317,0.392,0.588l-6.625,33.125C63.318,61.332,63.113,61.5,62.875,61.5z"/><path fill="#472b29" d="M60.75,40c-0.034,0-0.068-0.003-0.103-0.011c-0.271-0.056-0.444-0.321-0.387-0.591l1.25-6 c0.056-0.271,0.315-0.446,0.591-0.387c0.271,0.056,0.444,0.321,0.387,0.591l-1.25,6C61.19,39.838,60.982,40,60.75,40z"/><path fill="#472b29" d="M69.625,71.875c-0.164,0-0.324-0.08-0.419-0.228l-6.75-10.375c-0.151-0.231-0.085-0.541,0.146-0.691 c0.231-0.151,0.541-0.084,0.691,0.146l6.75,10.375c0.151,0.231,0.085,0.541-0.146,0.691C69.813,71.849,69.719,71.875,69.625,71.875 z"/><path fill="#472b29" d="M50.375,61.375c-0.039,0-0.079-0.004-0.119-0.014c-0.269-0.065-0.433-0.336-0.368-0.604l3.5-14.375 c0.065-0.269,0.335-0.435,0.604-0.368c0.269,0.065,0.433,0.336,0.368,0.604l-3.5,14.375C50.805,61.222,50.601,61.375,50.375,61.375 z"/><path fill="#472b29" d="M47.75,54c-0.043,0-0.086-0.005-0.13-0.017c-0.267-0.071-0.425-0.346-0.354-0.612l1.875-7 C49.201,46.152,49.398,46,49.625,46h4.25c0.276,0,0.5,0.224,0.5,0.5s-0.224,0.5-0.5,0.5h-3.866l-1.776,6.629 C48.173,53.853,47.971,54,47.75,54z"/><path fill="#472b29" d="M40.25,54c-0.048,0-0.097-0.007-0.145-0.021c-0.265-0.08-0.414-0.359-0.333-0.624L41.701,47h-3.076 c-0.276,0-0.5-0.224-0.5-0.5s0.224-0.5,0.5-0.5h3.75c0.158,0,0.307,0.075,0.402,0.202c0.094,0.127,0.123,0.292,0.077,0.443 l-2.125,7C40.663,53.861,40.465,54,40.25,54z"/><path fill="#472b29" d="M37.5,65h-4.125c-0.276,0-0.5-0.224-0.5-0.5s0.224-0.5,0.5-0.5H37.5c0.276,0,0.5,0.224,0.5,0.5 S37.776,65,37.5,65z"/><path fill="#472b29" d="M45.375,57h-3c-0.276,0-0.5-0.224-0.5-0.5s0.224-0.5,0.5-0.5h3c0.276,0,0.5,0.224,0.5,0.5 S45.651,57,45.375,57z"/><path fill="#472b29" d="M34.5,35h-4.375c-0.276,0-0.5-0.224-0.5-0.5s0.224-0.5,0.5-0.5H34.5c0.276,0,0.5,0.224,0.5,0.5 S34.776,35,34.5,35z"/><path fill="#472b29" d="M69.25,64.625c-0.017,0-0.034-0.001-0.052-0.005c-0.135-0.028-0.222-0.161-0.193-0.296l3.625-17.375 c0.028-0.135,0.16-0.224,0.296-0.193c0.135,0.028,0.222,0.161,0.193,0.296l-3.625,17.375C69.47,64.544,69.366,64.625,69.25,64.625z"/><path fill="#472b29" d="M73.375,44.875c-0.017,0-0.033-0.001-0.049-0.005c-0.136-0.027-0.224-0.159-0.196-0.294l0.875-4.375 c0.027-0.136,0.165-0.225,0.294-0.196c0.136,0.027,0.224,0.159,0.196,0.294l-0.875,4.375 C73.596,44.793,73.492,44.875,73.375,44.875z"/></g></svg>